<?xml version="1.0" encoding="UTF-8" standalone="no"?>
<!-- Created with Inkscape (http://www.inkscape.org/) -->

<svg
   xmlns:dc="http://purl.org/dc/elements/1.1/"
   xmlns:cc="http://creativecommons.org/ns#"
   xmlns:rdf="http://www.w3.org/1999/02/22-rdf-syntax-ns#"
   xmlns:svg="http://www.w3.org/2000/svg"
   xmlns="http://www.w3.org/2000/svg"
   xmlns:inkscape="http://www.inkscape.org/namespaces/inkscape"
   version="1.1"
   width="30"
   height="30"
   viewBox="0 0 30 30"
   id="svg2">
  <metadata
     id="metadata10">
    <rdf:RDF>
      <cc:Work
         rdf:about="">
        <dc:format>image/svg+xml</dc:format>
        <dc:type
           rdf:resource="http://purl.org/dc/dcmitype/StillImage" />
      </cc:Work>
    </rdf:RDF>
  </metadata>
  <defs
     id="defs8" />
  <path
     d="m 24.437,14.938 c 0,-1.12 0.364,-2.158 0.883,-2.34 l 0.833,-0.29 c -0.29,-1.217 -0.77,-2.36 -1.41,-3.393 l -0.79,0.38 C 23.457,9.533 22.466,9.058 21.673,8.265 20.88,7.472 20.406,6.482 20.645,5.987 l 0.38,-0.79 C 19.99,4.557 18.85,4.074 17.632,3.787 l -0.292,0.83 c -0.183,0.52 -1.22,0.884 -2.34,0.884 -1.12,0 -2.157,-0.36 -2.34,-0.88 l -0.29,-0.83 c -1.22,0.29 -2.35,0.79 -3.384,1.43 l 0.37,0.77 c 0.24,0.5 -0.236,1.49 -1.03,2.28 C 7.532,9.061 6.546,9.54 6.05,9.3 L 5.277,8.926 c -0.64,1.034 -1.142,2.165 -1.43,3.383 l 0.834,0.29 c 0.52,0.18 0.89,1.21 0.89,2.34 0,1.12 -0.36,2.15 -0.88,2.33 l -0.83,0.293 c 0.29,1.214 0.77,2.36 1.41,3.39 l 0.793,-0.38 c 0.495,-0.237 1.486,0.24 2.278,1.03 0.792,0.79 1.27,1.783 1.03,2.28 l -0.38,0.79 c 1.036,0.64 2.176,1.122 3.394,1.41 l 0.29,-0.833 c 0.18,-0.52 1.22,-0.883 2.34,-0.883 1.12,0 2.157,0.364 2.34,0.883 l 0.29,0.833 c 1.216,-0.29 2.36,-0.77 3.39,-1.41 l -0.38,-0.794 c -0.235,-0.498 0.24,-1.488 1.03,-2.28 0.79,-0.792 1.785,-1.27 2.28,-1.03 l 0.79,0.38 c 0.64,-1.033 1.123,-2.174 1.41,-3.392 l -0.832,-0.29 c -0.52,-0.18 -0.882,-1.22 -0.882,-2.34 z M 15,20.986 c -3.34,0 -6.048,-2.71 -6.048,-6.05 0,-3.34 2.708,-6.046 6.048,-6.046 3.34,0 6.05,2.708 6.05,6.05 0,3.34 -2.71,6.048 -6.05,6.048 z"
     inkscape:connector-curvature="0"
     id="path4" />
</svg>
